<?xml version="1.0" standalone="no"?>
<!DOCTYPE svg PUBLIC "-//W3C//DTD SVG 20010904//EN"
 "http://www.w3.org/TR/2001/REC-SVG-20010904/DTD/svg10.dtd">
<svg version="1.0" xmlns="http://www.w3.org/2000/svg"
 width="700.000000pt" height="700.000000pt" viewBox="0 0 700.000000 700.000000"
 preserveAspectRatio="xMidYMid meet">
<metadata>
Created by potrace 1.11, written by Peter Selinger 2001-2013
</metadata>
<g transform="translate(0.000000,700.000000) scale(0.100000,-0.100000)"
fill="#000000" stroke="none">
<path d="M973 6479 c-177 -45 -315 -166 -382 -337 -62 -157 -40 -361 53 -499
155 -228 434 -310 689 -201 l47 21 108 -46 c59 -25 253 -108 432 -185 499
-215 1070 -460 1560 -671 245 -105 459 -198 475 -206 99 -48 250 -106 282
-109 93 -9 161 36 208 138 36 78 40 86 115 261 29 66 58 134 65 150 8 17 75
173 150 349 115 266 137 326 137 367 -1 114 -58 165 -277 249 -11 4 -31 12
-45 18 -69 30 -157 13 -212 -42 -19 -19 -47 -65 -63 -103 -16 -37 -39 -93 -53
-123 -13 -30 -30 -68 -37 -85 -7 -16 -24 -56 -39 -88 -14 -32 -26 -60 -26 -63
0 -3 -11 -29 -24 -57 -13 -29 -40 -92 -61 -140 -21 -50 -43 -86 -49 -83 -38
15 -1187 510 -1211 521 -16 7 -277 119 -578 249 -581 250 -592 255 -584 263 8
8 -22 103 -56 173 -39 81 -149 194 -227 232 -133 65 -266 81 -397 47z m188
-242 c83 -10 173 -78 215 -164 72 -147 8 -326 -143 -399 -142 -70 -330 -1
-397 145 -30 67 -29 189 2 252 30 62 85 117 141 142 48 22 106 35 131 30 8 -1
31 -4 51 -6z"/>
<path d="M5815 6433 c-47 -6 -151 -42 -203 -71 -77 -43 -175 -149 -215 -233
-44 -92 -58 -152 -58 -251 -1 -84 19 -164 57 -240 13 -26 24 -52 24 -58 0 -6
-39 -102 -86 -213 -47 -111 -93 -218 -101 -237 -8 -19 -21 -47 -29 -62 -9 -16
-12 -28 -8 -28 3 0 2 -6 -4 -12 -5 -7 -26 -53 -47 -103 -20 -49 -45 -108 -55
-130 -10 -22 -46 -107 -80 -190 -35 -82 -67 -154 -71 -159 -5 -6 -9 -16 -9
-22 0 -7 -14 -43 -31 -81 -45 -101 -45 -100 -90 -208 -22 -55 -49 -118 -59
-140 -10 -22 -75 -175 -144 -340 -70 -165 -131 -309 -136 -320 -6 -11 -62
-141 -126 -290 -130 -306 -140 -345 -104 -419 28 -58 72 -88 220 -150 197 -82
842 -357 897 -382 117 -53 184 -50 258 11 35 29 51 55 100 171 42 101 57 149
57 182 -1 52 -37 127 -72 152 -22 15 -552 246 -680 296 -25 9 -46 18 -48 20
-3 1 158 386 208 499 10 22 30 69 45 105 28 67 41 99 68 160 8 19 92 217 187
440 95 223 181 425 192 450 30 68 35 81 184 432 l138 328 56 16 c273 79 444
364 383 639 -48 218 -211 382 -428 431 -28 7 -154 11 -190 7z m202 -281 c65
-34 110 -78 140 -140 37 -74 39 -182 5 -253 -48 -103 -157 -172 -270 -172 -92
0 -158 30 -221 98 -151 166 -80 414 139 486 45 15 162 4 207 -19z"/>
<path d="M2770 6369 c-34 -12 -42 -28 -144 -265 -76 -177 -85 -204 -77 -232 6
-18 16 -39 24 -46 8 -8 162 -78 343 -156 181 -77 343 -147 359 -154 243 -110
605 -259 626 -259 56 0 72 22 168 245 51 117 93 225 93 240 2 48 -25 72 -129
117 -54 24 -116 51 -138 61 -105 47 -920 397 -992 426 -89 36 -94 37 -133 23z"/>
<path d="M1363 4897 c-63 -24 -97 -68 -153 -203 -74 -176 -76 -240 -8 -315 33
-37 47 -44 413 -195 182 -75 333 -139 338 -143 5 -6 -399 -1002 -502 -1236
-10 -22 -125 -300 -257 -618 l-239 -578 -84 -40 c-153 -72 -271 -220 -306
-385 -73 -352 206 -682 563 -668 227 9 418 149 503 369 30 79 34 272 6 348
-20 56 -52 122 -77 157 -18 25 -17 28 171 480 105 250 191 460 193 465 2 6 8
21 13 35 6 14 100 239 208 500 179 431 397 957 511 1230 24 58 46 122 49 143
12 74 -35 161 -105 197 -22 11 -115 51 -207 89 -92 38 -332 137 -533 221 -381
158 -430 173 -497 147z m-117 -3562 c145 -85 198 -243 131 -389 -29 -64 -73
-108 -142 -144 -42 -22 -63 -26 -130 -26 -88 1 -135 18 -198 73 -91 80 -122
230 -71 341 39 85 102 141 194 171 48 16 170 1 216 -26z"/>
<path d="M5845 4422 c-22 -4 -75 -50 -75 -64 0 -5 -9 -28 -20 -50 -11 -23 -20
-45 -20 -49 0 -4 -14 -38 -31 -76 -16 -37 -34 -77 -39 -88 -87 -194 -421 -995
-425 -1017 -10 -54 24 -88 134 -132 53 -22 119 -50 146 -62 223 -101 261 -98
309 23 17 43 51 123 76 178 5 11 21 49 35 85 15 36 34 83 44 105 78 173 371
874 371 888 0 33 -29 74 -62 90 -68 32 -374 160 -398 166 -14 4 -34 5 -45 3z"/>
<path d="M1181 4151 c-13 -4 -32 -18 -42 -31 -10 -14 -113 -254 -230 -535
-116 -280 -217 -523 -224 -540 -50 -109 -95 -231 -95 -254 0 -38 25 -68 73
-90 159 -72 396 -164 421 -163 36 1 78 40 95 89 7 21 22 58 33 83 36 81 45
104 103 245 31 77 60 149 65 160 6 11 80 189 166 395 166 401 168 408 122 457
-12 13 -29 23 -38 23 -9 0 -20 4 -25 8 -6 5 -30 17 -55 26 -25 10 -58 24 -75
31 -76 35 -230 95 -249 98 -11 2 -32 1 -45 -2z"/>
<path d="M2668 2735 c-2 -2 -16 -6 -32 -9 -26 -5 -48 -17 -87 -48 -23 -18 -44
-63 -144 -303 -48 -115 -93 -223 -100 -240 -7 -16 -61 -145 -120 -285 -59
-140 -114 -271 -123 -290 -11 -22 -17 -59 -17 -100 1 -116 42 -155 252 -239
140 -57 210 -53 276 13 35 35 38 40 162 336 122 291 139 331 163 382 l17 37
70 -30 c39 -16 79 -33 90 -38 32 -14 120 -51 430 -181 160 -66 299 -125 310
-130 11 -5 97 -41 190 -80 94 -39 195 -82 225 -95 30 -13 197 -82 370 -155
173 -72 329 -137 345 -145 120 -52 346 -145 354 -145 6 0 11 -6 12 -12 3 -58
51 -179 95 -239 165 -227 452 -299 703 -176 122 59 247 210 281 337 20 73 21
82 21 157 0 288 -225 528 -516 550 -84 6 -162 -7 -249 -42 l-64 -26 -84 34
c-113 47 -586 245 -623 262 -16 8 -208 88 -425 178 -672 281 -1474 618 -1504
633 -16 8 -33 14 -37 14 -5 0 -32 11 -61 24 -94 42 -168 63 -180 51z m3257
-1389 c55 -10 116 -47 162 -100 114 -130 82 -347 -66 -440 -196 -123 -447 7
-457 237 -2 38 2 80 8 95 30 75 41 92 75 126 48 47 103 76 162 85 48 8 52 8
116 -3z"/>
<path d="M3031 1719 c-40 -8 -63 -35 -90 -104 -11 -27 -49 -120 -86 -205 -73
-171 -75 -193 -28 -242 15 -15 31 -28 36 -28 8 0 302 -119 382 -155 17 -8 199
-84 405 -171 206 -86 395 -165 419 -176 124 -56 141 -40 252 222 45 107 84
211 86 231 8 54 -30 87 -162 142 -60 25 -240 100 -400 167 -320 134 -615 258
-715 299 -50 21 -73 26 -99 20z"/>
</g>
</svg>
