<svg xmlns="http://www.w3.org/2000/svg" xmlns:xlink="http://www.w3.org/1999/xlink" width="477.11" height="128.82" viewBox="0 0 477.11 128.82"><defs><style>.a{fill:#ffc200;}.b{fill:#444038;}</style><symbol id="a" viewBox="0 0 244.09 248.44"><path class="a" d="M175.64,33.38l-8.23-3.54a8.3,8.3,0,0,0-10.87,4.31L144.31,62.56,45.68,20.09A22.93,22.93,0,1,0,22.94,45.85a22.65,22.65,0,0,0,11.24-3l106.88,46,9,3.88a8.28,8.28,0,0,0,10-2.71,7.6,7.6,0,0,0,.89-1.6L164.56,80l.07-.13L180,44.22A8.31,8.31,0,0,0,175.64,33.38Zm-152.7,2a11.2,11.2,0,0,1-2.32-.23,12.41,12.41,0,0,1,2.32-24.6,12.24,12.24,0,0,1,9.28,4.21,12.4,12.4,0,0,1-9.28,20.62Z"/><path class="a" d="M164.53,80c0,.1-.07.16-.1.26l-3.55,8.22s0,0,0,0Z"/><path class="a" d="M137,51.22,84.83,28.74a4,4,0,0,1-2.08-5.24l7-16.14A4,4,0,0,1,95,5.27l52.18,22.48A4,4,0,0,1,149.21,33l-7,16.14A4,4,0,0,1,137,51.22Z"/><path class="a" d="M160,90.14a8.38,8.38,0,0,1-10,2.75l-8.23-3.55c-.23-.1-.49-.23-.72-.36l9,3.88A8.33,8.33,0,0,0,160,90.14Z"/><path class="a" d="M165.19,168.14l-8.25-3.51a0,0,0,0,1,0,0Z"/><path class="a" d="M194.1,140.59l22.25-52.27a4,4,0,0,1,5.2-2.09l16.14,6.86a4,4,0,0,1,2.09,5.2l-22.24,52.28a4,4,0,0,1-5.21,2.09l-16.14-6.86A4,4,0,0,1,194.1,140.59Z"/><path class="a" d="M154.15,162.71l.07.06s0,0-.07-.06Z"/><path class="a" d="M154.22,162.74a1.63,1.63,0,0,0,.27.26A1.63,1.63,0,0,1,154.22,162.74Z"/><path class="a" d="M153.86,162.34a2.36,2.36,0,0,0,.29.33,8.27,8.27,0,0,1-1.65-8.95l3.51-8.25a7.75,7.75,0,0,1,.36-.7l-3.81,9a8.45,8.45,0,0,0-.66,3.68.56.56,0,0,0,0,.23.59.59,0,0,0,0,.26v0c0,.13,0,.29.06.43s0,.26.07.39a.47.47,0,0,0,.06.2l.1.34a2,2,0,0,0,.14.39.39.39,0,0,0,.06.17,1.33,1.33,0,0,0,.17.36l.16.37a1.18,1.18,0,0,0,.14.23s0,.07,0,.1a1.46,1.46,0,0,0,.17.26.67.67,0,0,0,.16.24,2.19,2.19,0,0,0,.23.33c.07.06.1.16.17.23A.47.47,0,0,0,153.86,162.34Z"/><path class="a" d="M154.92,163.4c-.14-.13-.27-.23-.4-.36A3.9,3.9,0,0,0,154.92,163.4Z"/><path class="a" d="M80.82,161l-3.58,8.52a1.6,1.6,0,0,0,.1-.23L80.82,161Z"/><path class="a" d="M105,198.08l52.38,22a4,4,0,0,1,2.12,5.21l-6.79,16.17a4,4,0,0,1-5.21,2.13l-52.38-22a4,4,0,0,1-2.12-5.2l6.8-16.18A4,4,0,0,1,105,198.08Z"/><path class="a" d="M100.61,160.35l-9-3.78a8.34,8.34,0,0,0-9.12,1.86,8.26,8.26,0,0,1,9.15-1.89L99.92,160A3.41,3.41,0,0,1,100.61,160.35Z"/><path class="a" d="M84.1,84.9l-8.61-3.58a1.45,1.45,0,0,1,.29.13l8.29,3.45S84.1,84.87,84.1,84.9Z"/><path class="a" d="M47.11,109.23,25.33,161.71a4,4,0,0,1-5.21,2.16L3.91,157.14a4,4,0,0,1-2.15-5.21L23.54,99.49a4,4,0,0,1,5.2-2.16L45,104.06A3.91,3.91,0,0,1,47.11,109.23Z"/><path class="a" d="M221.05,2.55a23,23,0,0,0-22.94,22.91,22.58,22.58,0,0,0,3.72,12.47L156.37,144.77l-3.81,9a8.45,8.45,0,0,0-.66,3.68.63.63,0,0,0,0,.23.59.59,0,0,0,0,.26v0c0,.13,0,.29.06.43s0,.26.07.39a.47.47,0,0,0,.06.2l.1.34a2,2,0,0,0,.14.39.39.39,0,0,0,.06.17,1.33,1.33,0,0,0,.17.36l.16.37a1.18,1.18,0,0,0,.14.23s0,.07,0,.1a1.46,1.46,0,0,0,.17.26.67.67,0,0,0,.16.24,2.19,2.19,0,0,0,.23.33c.07.06.1.16.17.23a2.23,2.23,0,0,1,.26.33c.07.07.1.13.17.2l.07.07.06.06,0,0a6.59,6.59,0,0,0,.73.66h0l.39.3a7.78,7.78,0,0,0,1.59.89l8.29,3.55.4.17,35.7,15.18a8.28,8.28,0,0,0,10.84-4.38l3.52-8.25A8.29,8.29,0,0,0,211.37,160l-28.47-12.1L225.4,48a22.92,22.92,0,0,0-4.35-45.45Zm9,31.4a12.3,12.3,0,0,1-9,3.91,12.42,12.42,0,0,1-12.4-12.4,4.47,4.47,0,0,1,0-.73h0A12.41,12.41,0,1,1,230.1,34Z"/><path class="a" d="M86.23,86.16a7.57,7.57,0,0,0-2.09-1.26l-8.62-3.58-.1,0L39.58,66.44a8.25,8.25,0,0,0-10.8,4.47L25.33,79.2A8.27,8.27,0,0,0,29.8,90l28.58,11.86-41.9,101a23,23,0,1,0,24.43,7.79L84.83,104.72a5.5,5.5,0,0,0,.34-.69l3.44-8.29A8.39,8.39,0,0,0,86.23,86.16ZM22.94,237.26a12.4,12.4,0,1,1,12.33-13.69h0c0,.43.07.86.07,1.3A12.42,12.42,0,0,1,22.94,237.26Z"/><path class="a" d="M219.79,202.55a23.12,23.12,0,0,0-11.43,3L100.61,160.35l-9-3.78a8.34,8.34,0,0,0-9.12,1.86A8.17,8.17,0,0,0,80.82,161l-3.58,8.52L62.16,205.44a8.31,8.31,0,0,0,4.41,10.84l8.25,3.48a8.31,8.31,0,0,0,10.84-4.41l12-28.54,99.42,41.77a22.93,22.93,0,1,0,22.71-26Zm0,35.34a12.31,12.31,0,0,1-9.35-4.27h0a12.38,12.38,0,0,1,9.35-20.52,11.64,11.64,0,0,1,1.86.13,12.4,12.4,0,0,1-1.86,24.66Z"/></symbol></defs><use width="244.09" height="248.44" transform="translate(21.05 10.69) scale(0.43)" xlink:href="#a"/><path class="b" d="M197,83.37h-4.08V65.91q0-5.46-1.74-8A5.82,5.82,0,0,0,186,55.29a8.75,8.75,0,0,0-3.39.66,10.42,10.42,0,0,0-2.94,1.86,12.75,12.75,0,0,0-2.37,2.85,13.73,13.73,0,0,0-1.56,3.63V83.37h-4.08V65.91q0-5.58-1.68-8.1a5.77,5.77,0,0,0-5.16-2.52,9.2,9.2,0,0,0-6.3,2.46,13.7,13.7,0,0,0-4,6.48V83.37h-4.08V52.11h3.72v7.08a14.78,14.78,0,0,1,5-5.61,12.48,12.48,0,0,1,6.9-2,8.89,8.89,0,0,1,6.33,2.22,9.67,9.67,0,0,1,2.91,5.82q4.38-8,12.06-8a9.53,9.53,0,0,1,4.47,1,7.56,7.56,0,0,1,2.94,2.73,12.79,12.79,0,0,1,1.62,4.26,27.74,27.74,0,0,1,.51,5.55Z"/><path class="b" d="M216.47,84a11,11,0,0,1-4.11-.75,10.37,10.37,0,0,1-3.3-2.07,9.32,9.32,0,0,1-3-6.9,7.7,7.7,0,0,1,1-3.78,9.15,9.15,0,0,1,2.7-3,13.22,13.22,0,0,1,4.14-2,19.06,19.06,0,0,1,5.28-.69,28.84,28.84,0,0,1,4.86.42,21.07,21.07,0,0,1,4.38,1.2V63.63a9.07,9.07,0,0,0-2.34-6.57,8.57,8.57,0,0,0-6.48-2.43,13.77,13.77,0,0,0-4.92,1,23.73,23.73,0,0,0-5.1,2.76l-1.44-2.7q6.06-4.08,11.76-4.08,5.88,0,9.24,3.3T232.49,64v14.1q0,1.68,1.5,1.68v3.6a9.73,9.73,0,0,1-1.56.18,3.51,3.51,0,0,1-2.43-.78,2.93,2.93,0,0,1-.93-2.16L229,78.15a14.18,14.18,0,0,1-5.43,4.32A16.7,16.7,0,0,1,216.47,84Zm1-3.12a14.11,14.11,0,0,0,5.85-1.2,9.55,9.55,0,0,0,4.05-3.18,3.74,3.74,0,0,0,.81-1.17,3,3,0,0,0,.27-1.17V69a25,25,0,0,0-4.23-1.2,23.68,23.68,0,0,0-4.47-.42,12.44,12.44,0,0,0-7,1.8A5.47,5.47,0,0,0,210,74a6.47,6.47,0,0,0,.57,2.7,6.84,6.84,0,0,0,1.56,2.19,7.31,7.31,0,0,0,2.37,1.47A8,8,0,0,0,217.43,80.85Z"/><path class="b" d="M266.63,83.37l-11.52-16-6.72,6.24v9.78h-4.08V39.57h4.08V69.33L266,52.17h4.62L257.81,65l13.26,18.42Z"/><path class="b" d="M291,84a15,15,0,0,1-6.27-1.29,15.37,15.37,0,0,1-5-3.54A16.44,16.44,0,0,1,276.5,74a16.88,16.88,0,0,1-1.17-6.3,16.49,16.49,0,0,1,1.17-6.21,16.07,16.07,0,0,1,3.24-5.1,15.38,15.38,0,0,1,4.95-3.48,15.81,15.81,0,0,1,12.51,0,14.91,14.91,0,0,1,4.89,3.51,16.48,16.48,0,0,1,4.32,11.22v1a2.41,2.41,0,0,1-.06.66H279.59a13.16,13.16,0,0,0,1.17,4.65,12.78,12.78,0,0,0,2.55,3.69A11.42,11.42,0,0,0,286.88,80a10.68,10.68,0,0,0,4.29.87,11.08,11.08,0,0,0,3-.42,12.13,12.13,0,0,0,2.76-1.14,10.26,10.26,0,0,0,2.28-1.77,7.6,7.6,0,0,0,1.56-2.31l3.54,1a10.4,10.4,0,0,1-2,3.15,14.24,14.24,0,0,1-3.06,2.46,15,15,0,0,1-3.84,1.62A16.65,16.65,0,0,1,291,84Zm11.52-17.88a12.62,12.62,0,0,0-1.17-4.59,12.49,12.49,0,0,0-2.52-3.57,11.15,11.15,0,0,0-3.54-2.34,11,11,0,0,0-4.29-.84,11.23,11.23,0,0,0-4.32.84,11.06,11.06,0,0,0-3.57,2.34,11.5,11.5,0,0,0-2.46,3.6,13.63,13.63,0,0,0-1.11,4.56Z"/><path class="b" d="M331.31,55.71a12.83,12.83,0,0,0-7.2,2.28,11.5,11.5,0,0,0-4.32,5.94V83.37h-4.08V52.11h3.84v7.5A14.22,14.22,0,0,1,324.23,54a10.85,10.85,0,0,1,6.3-2,4.11,4.11,0,0,1,.78.06Z"/><path class="b" d="M367.37,83.37h-6.6V65.79q0-4.32-1.53-6.39a5.15,5.15,0,0,0-4.41-2.07,7.53,7.53,0,0,0-2.76.54,9.76,9.76,0,0,0-2.61,1.53,11.64,11.64,0,0,0-2.19,2.34,9.74,9.74,0,0,0-1.44,3V83.37h-6.6V39.57h6.6V58.29a13,13,0,0,1,4.89-5,13.17,13.17,0,0,1,6.75-1.8,9.9,9.9,0,0,1,4.83,1,8.48,8.48,0,0,1,3,2.79,11.41,11.41,0,0,1,1.59,4.05,25.54,25.54,0,0,1,.45,4.89Z"/><path class="b" d="M378,46.83V39.57h6.6v7.26Zm0,36.54V52h6.6V83.37Z"/><path class="b" d="M404.38,83.37,392.38,52h6.78l9,25.8L417.22,52h6.24l-12,31.38Z"/><path class="b" d="M444.28,84a16.69,16.69,0,0,1-6.66-1.29,15.5,15.5,0,0,1-5.13-3.51,15.82,15.82,0,0,1-3.3-5.16A16.72,16.72,0,0,1,428,67.77a17,17,0,0,1,1.17-6.27,16.09,16.09,0,0,1,3.3-5.22,15.28,15.28,0,0,1,5.13-3.54,16.85,16.85,0,0,1,6.72-1.29A16.15,16.15,0,0,1,451,52.77,15.85,15.85,0,0,1,456,56.28a15,15,0,0,1,3.21,5.1,16.94,16.94,0,0,1,1.11,6.09q0,.72-.06,1.35t-.12,1.05H435a10.74,10.74,0,0,0,1,3.78,10,10,0,0,0,2.1,2.91,9.22,9.22,0,0,0,6.39,2.55,10.49,10.49,0,0,0,2.61-.33,9.2,9.2,0,0,0,2.37-1,8.4,8.4,0,0,0,1.92-1.53,7.14,7.14,0,0,0,1.32-2l5.64,1.62A13.08,13.08,0,0,1,453,81.72,16.64,16.64,0,0,1,444.28,84Zm9.54-18.66a10.55,10.55,0,0,0-1-3.66,9.42,9.42,0,0,0-2.07-2.85A9.24,9.24,0,0,0,447.82,57a9.59,9.59,0,0,0-3.54-.66,9.39,9.39,0,0,0-6.42,2.49,9,9,0,0,0-2,2.85,11,11,0,0,0-1,3.66Z"/></svg>