<svg xmlns="http://www.w3.org/2000/svg" xmlns:xlink="http://www.w3.org/1999/xlink" width="290" height="290" viewBox="0 0 290 290"><defs><style>.a{fill:#ffc200;}</style><symbol id="a" viewBox="0 0 244.09 248.44"><path class="a" d="M175.64,33.38l-8.23-3.54a8.3,8.3,0,0,0-10.87,4.31L144.31,62.56,45.68,20.09A22.93,22.93,0,1,0,22.94,45.85a22.65,22.65,0,0,0,11.24-3l106.88,46,9,3.88a8.28,8.28,0,0,0,10-2.71,7.6,7.6,0,0,0,.89-1.6L164.56,80l.07-.13L180,44.22A8.31,8.31,0,0,0,175.64,33.38Zm-152.7,2a11.2,11.2,0,0,1-2.32-.23,12.41,12.41,0,0,1,2.32-24.6,12.24,12.24,0,0,1,9.28,4.21,12.4,12.4,0,0,1-9.28,20.62Z"/><path class="a" d="M164.53,80c0,.1-.07.16-.1.26l-3.55,8.22s0,0,0,0Z"/><path class="a" d="M137,51.22,84.83,28.74a4,4,0,0,1-2.08-5.24l7-16.14A4,4,0,0,1,95,5.27l52.18,22.48A4,4,0,0,1,149.21,33l-7,16.14A4,4,0,0,1,137,51.22Z"/><path class="a" d="M160,90.14a8.38,8.38,0,0,1-10,2.75l-8.23-3.55c-.23-.1-.49-.23-.72-.36l9,3.88A8.33,8.33,0,0,0,160,90.14Z"/><path class="a" d="M165.19,168.14l-8.25-3.51a0,0,0,0,1,0,0Z"/><path class="a" d="M194.1,140.59l22.25-52.27a4,4,0,0,1,5.2-2.09l16.14,6.86a4,4,0,0,1,2.09,5.2l-22.24,52.28a4,4,0,0,1-5.21,2.09l-16.14-6.86A4,4,0,0,1,194.1,140.59Z"/><path class="a" d="M154.15,162.71l.07.06s0,0-.07-.06Z"/><path class="a" d="M154.22,162.74a1.63,1.63,0,0,0,.27.26A1.63,1.63,0,0,1,154.22,162.74Z"/><path class="a" d="M153.86,162.34a2.36,2.36,0,0,0,.29.33,8.27,8.27,0,0,1-1.65-8.95l3.51-8.25a7.75,7.75,0,0,1,.36-.7l-3.81,9a8.45,8.45,0,0,0-.66,3.68.56.56,0,0,0,0,.23.59.59,0,0,0,0,.26v0c0,.13,0,.29.06.43s0,.26.07.39a.47.47,0,0,0,.06.2l.1.34a2,2,0,0,0,.14.39.39.39,0,0,0,.06.17,1.33,1.33,0,0,0,.17.36l.16.37a1.18,1.18,0,0,0,.14.23s0,.07,0,.1a1.46,1.46,0,0,0,.17.26.67.67,0,0,0,.16.24,2.19,2.19,0,0,0,.23.33c.07.06.1.16.17.23A.47.47,0,0,0,153.86,162.34Z"/><path class="a" d="M154.92,163.4c-.14-.13-.27-.23-.4-.36A3.9,3.9,0,0,0,154.92,163.4Z"/><path class="a" d="M80.82,161l-3.58,8.52a1.6,1.6,0,0,0,.1-.23L80.82,161Z"/><path class="a" d="M105,198.08l52.38,22a4,4,0,0,1,2.12,5.21l-6.79,16.17a4,4,0,0,1-5.21,2.13l-52.38-22a4,4,0,0,1-2.12-5.2l6.8-16.18A4,4,0,0,1,105,198.08Z"/><path class="a" d="M100.61,160.35l-9-3.78a8.34,8.34,0,0,0-9.12,1.86,8.26,8.26,0,0,1,9.15-1.89L99.92,160A3.41,3.41,0,0,1,100.61,160.35Z"/><path class="a" d="M84.1,84.9l-8.61-3.58a1.45,1.45,0,0,1,.29.13l8.29,3.45S84.1,84.87,84.1,84.9Z"/><path class="a" d="M47.11,109.23,25.33,161.71a4,4,0,0,1-5.21,2.16L3.91,157.14a4,4,0,0,1-2.15-5.21L23.54,99.49a4,4,0,0,1,5.2-2.16L45,104.06A3.91,3.91,0,0,1,47.11,109.23Z"/><path class="a" d="M221.05,2.55a23,23,0,0,0-22.94,22.91,22.58,22.58,0,0,0,3.72,12.47L156.37,144.77l-3.81,9a8.45,8.45,0,0,0-.66,3.68.63.63,0,0,0,0,.23.59.59,0,0,0,0,.26v0c0,.13,0,.29.06.43s0,.26.07.39a.47.47,0,0,0,.06.2l.1.34a2,2,0,0,0,.14.39.39.39,0,0,0,.06.17,1.33,1.33,0,0,0,.17.36l.16.37a1.18,1.18,0,0,0,.14.23s0,.07,0,.1a1.46,1.46,0,0,0,.17.26.67.67,0,0,0,.16.24,2.19,2.19,0,0,0,.23.33c.07.06.1.16.17.23a2.23,2.23,0,0,1,.26.33c.07.07.1.13.17.2l.07.07.06.06,0,0a6.59,6.59,0,0,0,.73.66h0l.39.3a7.78,7.78,0,0,0,1.59.89l8.29,3.55.4.17,35.7,15.18a8.28,8.28,0,0,0,10.84-4.38l3.52-8.25A8.29,8.29,0,0,0,211.37,160l-28.47-12.1L225.4,48a22.92,22.92,0,0,0-4.35-45.45Zm9,31.4a12.3,12.3,0,0,1-9,3.91,12.42,12.42,0,0,1-12.4-12.4,4.47,4.47,0,0,1,0-.73h0A12.41,12.41,0,1,1,230.1,34Z"/><path class="a" d="M86.23,86.16a7.57,7.57,0,0,0-2.09-1.26l-8.62-3.58-.1,0L39.58,66.44a8.25,8.25,0,0,0-10.8,4.47L25.33,79.2A8.27,8.27,0,0,0,29.8,90l28.58,11.86-41.9,101a23,23,0,1,0,24.43,7.79L84.83,104.72a5.5,5.5,0,0,0,.34-.69l3.44-8.29A8.39,8.39,0,0,0,86.23,86.16ZM22.94,237.26a12.4,12.4,0,1,1,12.33-13.69h0c0,.43.07.86.07,1.3A12.42,12.42,0,0,1,22.94,237.26Z"/><path class="a" d="M219.79,202.55a23.12,23.12,0,0,0-11.43,3L100.61,160.35l-9-3.78a8.34,8.34,0,0,0-9.12,1.86A8.17,8.17,0,0,0,80.82,161l-3.58,8.52L62.16,205.44a8.31,8.31,0,0,0,4.41,10.84l8.25,3.48a8.31,8.31,0,0,0,10.84-4.41l12-28.54,99.42,41.77a22.93,22.93,0,1,0,22.71-26Zm0,35.34a12.31,12.31,0,0,1-9.35-4.27h0a12.38,12.38,0,0,1,9.35-20.52,11.64,11.64,0,0,1,1.86.13,12.4,12.4,0,0,1-1.86,24.66Z"/></symbol></defs><use width="244.09" height="248.44" transform="translate(22.95 20.78)" xlink:href="#a"/></svg>